<?xml version="1.0" standalone="no"?><!DOCTYPE svg PUBLIC "-//W3C//DTD SVG 1.1//EN" "http://www.w3.org/Graphics/SVG/1.1/DTD/svg11.dtd"><svg t="1488261468295" class="icon" fill="rgba(160,160,160,1)" viewBox="0 0 1110 1024" version="1.1" xmlns="http://www.w3.org/2000/svg" p-id="14910" xmlns:xlink="http://www.w3.org/1999/xlink" width="216.796875" height="200"><defs><style type="text/css"></style></defs><path d="M682.765288 469.307255C682.765288 457.752324 678.543291 447.752882 670.099299 439.308929 661.655346 430.864937 651.655904 426.642941 640.100974 426.642941L469.443797 426.642941C457.888867 426.642941 447.889425 430.864937 439.445472 439.308929 431.00148 447.752882 426.779483 457.752324 426.779483 469.307255 426.779483 480.862185 431.00148 490.861627 439.445472 499.30558 447.889425 507.749572 457.888867 511.971569 469.443797 511.971569L640.100974 511.971569C651.655904 511.971569 661.655346 507.749572 670.099299 499.30558 678.543291 490.861627 682.765288 480.862185 682.765288 469.307255ZM1066.743954 341.314352 1066.743954 981.278823C1066.743954 992.833714 1062.521958 1002.833196 1054.077965 1011.277148 1045.634013 1019.721141 1035.634571 1023.943097 1024.07964 1023.943097L85.465131 1023.943097C73.9102 1023.943097 63.910758 1019.721141 55.466806 1011.277148 47.022813 1002.833196 42.800817 992.833714 42.800817 981.278823L42.800817 341.314352C42.800817 329.759461 47.022813 319.76002 55.466806 311.316027 63.910758 302.872035 73.9102 298.650078 85.465131 298.650078L1024.07964 298.650078C1035.634571 298.650078 1045.634013 302.872035 1054.077965 311.316027 1062.521958 319.76002 1066.743954 329.759461 1066.743954 341.314352ZM1109.408228 42.664274 1109.408228 213.32149C1109.408228 224.876381 1105.186272 234.875823 1096.742279 243.319815 1088.298287 251.763768 1078.298845 255.985764 1066.743954 255.985764L42.800817 255.985764C31.245926 255.985764 21.246444 251.763768 12.802492 243.319815 4.358499 234.875823 0.136543 224.876381 0.136543 213.32149L0.136543 42.664274C0.136543 31.109383 4.358499 21.109941 12.802492 12.665949 21.246444 4.221956 31.245926 0 42.800817 0L1066.743954 0C1078.298845 0 1088.298287 4.221956 1096.742279 12.665949 1105.186272 21.109941 1109.408228 31.109383 1109.408228 42.664274ZM1109.408228 42.664274" p-id="14911"></path></svg>
