<?xml version="1.0" standalone="no"?><!DOCTYPE svg PUBLIC "-//W3C//DTD SVG 1.1//EN" "http://www.w3.org/Graphics/SVG/1.1/DTD/svg11.dtd"><svg t="1488261566842" class="icon" style="" viewBox="0 0 1024 1024" version="1.1" xmlns="http://www.w3.org/2000/svg" p-id="17577" xmlns:xlink="http://www.w3.org/1999/xlink" width="200" height="200"><defs><style type="text/css"></style></defs><path d="M804.571429 438.857143q0 79.428571-53.714286 146.857143t-146.571429 106.571428T402.285714 731.428571q-49.142857 0-100.571428-9.142857-70.857143 50.285714-158.857143 73.142857-20.571429 5.142857-49.142857 9.142858h-1.714286q-6.285714 0-11.714286-4.571429t-6.571428-12q-0.571429-1.714286-0.571429-3.714286t0.285714-3.714285 1.142858-3.428572l1.428571-2.857143 2-3.142857 2.285714-2.857143 2.571429-2.857143 2.285714-2.571428q2.857143-3.428571 13.142857-14.285714t14.857143-16.857143 12.857143-16.571429 14.285714-22 11.714286-25.142857q-70.857143-41.142857-111.428571-101.142857T0 438.857143q0-79.428571 53.714286-146.857143t146.571428-106.571429T402.285714 146.285714t202 39.142857T750.857143 292t53.714286 146.857143z m219.428571 146.285714q0 68.571429-40.571429 128.285714T872 814.285714q5.714286 13.714286 11.714286 25.142857t14.285714 22 12.857143 16.571429 14.857143 16.857143 13.142857 14.285714q0.571429 0.571429 2.285714 2.571429t2.571429 2.857143 2.285714 2.857142 2 3.142858l1.428571 2.857142 1.142858 3.428572 0.285714 3.714286-0.571429 3.714285q-1.714286 8-7.428571 12.571429t-12.571429 4q-28.571429-4-49.142857-9.142857-88-22.857143-158.857143-73.142857-51.428571 9.142857-100.571428 9.142857-154.857143 0-269.714286-75.428572 33.142857 2.285714 50.285714 2.285715 92 0 176.571429-25.714286t150.857143-73.714286q71.428571-52.571429 109.714285-121.142857t38.285715-145.142857q0-44-13.142857-86.857143 73.714286 40.571429 116.571428 101.714286t42.857143 131.428571z" fill="" p-id="17578"></path></svg>