<?xml version="1.0" standalone="no"?><!DOCTYPE svg PUBLIC "-//W3C//DTD SVG 1.1//EN" "http://www.w3.org/Graphics/SVG/1.1/DTD/svg11.dtd"><svg t="1488259692003" class="icon" style="" viewBox="0 0 1025 1024" version="1.1" xmlns="http://www.w3.org/2000/svg" p-id="14305" xmlns:xlink="http://www.w3.org/1999/xlink" width="200.1953125" height="200"><defs><style type="text/css"></style></defs><path d="M1011.5584 689.6384 963.2512 738.2016 843.4176 617.9328 891.6992 569.3696C908.0576 553.0112 934.784 553.1136 951.3216 569.7536L1011.4048 629.8112C1027.9424 646.4 1028.096 673.2288 1011.5584 689.6384ZM276.9408 711.5008 197.8112 711.5008 197.8112 632.448 276.9408 632.448 276.9408 711.5008ZM197.8112 316.2368 276.9408 316.2368 276.9408 395.2896 197.8112 395.2896 197.8112 316.2368ZM276.9408 553.3952 197.8112 553.3952 197.8112 474.3424 276.9408 474.3424 276.9408 553.3952ZM870.3744 491.5456 870.3744 158.1312 76.8256 153.6 79.1296 830.0544C79.1296 851.84 96.896 869.5808 118.6816 869.5808L514.7136 869.5808 491.5456 948.6336 118.6816 948.6336C53.1712 948.6336 0 895.5392 0 830.0544L0 118.6048C0 53.12 53.1712 0.0256 118.6816 0.0256L830.8224 0.0256C896.3328 0.0256 947.2256 62.4896 947.2256 128L947.2256 486.3744C938.752 484.5312 930.4832 486.3744 921.6256 486.3744 902.8096 486.3744 886.7584 483.5072 870.3744 491.5456ZM356.0704 711.5008 356.0704 632.448 716.3136 632.448 636.8 711.5008 356.0704 711.5008ZM356.0704 316.2368 751.6928 316.2368 751.6928 395.2896 356.0704 395.2896 356.0704 316.2368ZM751.6928 553.3952 356.0704 553.3952 356.0704 474.3424 751.6928 474.3424 751.6928 553.3952ZM601.1648 858.3168C602.1632 854.784 604.416 852.0704 607.1296 849.92L802.1504 655.8976 927.2576 781.3632 731.8784 975.6672C729.6768 978.1248 727.1168 980.1728 723.7888 981.1456L581.3248 1023.104C579.6864 1023.6672 577.9968 1023.9232 576.2816 1023.9232 571.6992 1023.9232 567.168 1022.0544 563.7632 1018.7264 559.2064 1014.144 557.4656 1007.3856 559.36 1001.216L601.1648 858.3168ZM626.048 973.0816 705.6384 949.5808 693.6576 887.808 633.0368 875.392 609.3568 956.288 626.048 973.0816Z" p-id="14306"></path></svg>