<?xml version="1.0" standalone="no"?><!DOCTYPE svg PUBLIC "-//W3C//DTD SVG 1.1//EN" "http://www.w3.org/Graphics/SVG/1.1/DTD/svg11.dtd"><svg t="1488258127630" class="icon" style="" viewBox="0 0 1024 1024" version="1.1" xmlns="http://www.w3.org/2000/svg" p-id="5023" xmlns:xlink="http://www.w3.org/1999/xlink" width="200" height="200"><defs><style type="text/css"></style></defs><path d="M512 0C229.184 0 0 229.184 0 512s229.184 512 512 512 512-229.216 512-512S794.784 0 512 0z m-128 768c-141.6 0-256-114.4-256-256s114.4-256 256-256c69.184 0 127.008 25.184 171.616 67.008l-69.6 66.816c-19.008-18.208-52.192-39.392-102.016-39.392-87.392 0-158.816 72.416-158.816 161.6s71.392 161.6 158.816 161.6c101.408 0 139.392-72.8 145.216-110.4h-145.184v-87.808h241.792c2.208 12.8 4 25.6 4 42.4 0 146.4-98.016 250.208-245.792 250.208z m448-256v64h-64v-64h-64v-64h64v-64h64v64h64v64h-64z" fill="" p-id="5024"></path></svg>