<?xml version="1.0" standalone="no"?><!DOCTYPE svg PUBLIC "-//W3C//DTD SVG 1.1//EN" "http://www.w3.org/Graphics/SVG/1.1/DTD/svg11.dtd"><svg t="1488294431269" class="icon" fill="rgba(116,116,116,1)" viewBox="0 0 1024 1024" version="1.1" xmlns="http://www.w3.org/2000/svg" p-id="37310" xmlns:xlink="http://www.w3.org/1999/xlink" width="200" height="200"><defs><style type="text/css"></style></defs><path d="M15.515152 15.515152 15.515152 15.515152 15.515152 15.515152Z" p-id="37311"></path><path d="M15.515152 139.636364l0 806.787879 992.969697 0 0-806.787879-992.969697 0zM946.424242 884.363636l-868.848485 0 0-682.666667 868.848485 0 0 682.666667zM698.181818 356.848485c0-51.417212 41.673697-93.090909 93.090909-93.090909s93.090909 41.673697 93.090909 93.090909c0 51.417212-41.673697 93.090909-93.090909 93.090909s-93.090909-41.673697-93.090909-93.090909zM884.363636 822.30303l-744.727273 0 186.181818-496.484848 248.242424 310.30303 124.121212-93.090909z" p-id="37312"></path></svg>
