<?xml version="1.0" standalone="no"?><!DOCTYPE svg PUBLIC "-//W3C//DTD SVG 1.1//EN" "http://www.w3.org/Graphics/SVG/1.1/DTD/svg11.dtd"><svg t="1488260702735" class="icon" style="" viewBox="0 0 1024 1024" version="1.1" xmlns="http://www.w3.org/2000/svg" p-id="27924" xmlns:xlink="http://www.w3.org/1999/xlink" width="200" height="200" fill="#fff"><defs><style type="text/css"></style></defs><path d="M101.759103 239.067864l827.183426 0c43.916209 0 79.537498-35.604916 79.537498-79.536474 0-43.931558-35.621289-79.537498-79.537498-79.537498L101.759103 79.993892c-43.931558 0-79.536474 35.604916-79.536474 79.537498C22.222629 203.461925 57.828568 239.067864 101.759103 239.067864zM928.942529 429.956426 101.759103 429.956426c-43.931558 0-79.536474 35.604916-79.536474 79.536474 0 43.932582 35.604916 79.537498 79.536474 79.537498l827.183426 0c43.916209 0 79.537498-35.604916 79.537498-79.537498C1008.480027 465.561341 972.858738 429.956426 928.942529 429.956426zM928.942529 779.917936 101.759103 779.917936c-43.931558 0-79.536474 35.605939-79.536474 79.537498 0 43.932582 35.604916 79.537498 79.536474 79.537498l827.183426 0c43.916209 0 79.537498-35.604916 79.537498-79.537498C1008.480027 815.522852 972.858738 779.917936 928.942529 779.917936z" p-id="27925"></path></svg>
