<?xml version="1.0" standalone="no"?><!DOCTYPE svg PUBLIC "-//W3C//DTD SVG 1.1//EN" "http://www.w3.org/Graphics/SVG/1.1/DTD/svg11.dtd"><svg t="1488257581222" class="icon" style="" viewBox="0 0 1024 1024" version="1.1" xmlns="http://www.w3.org/2000/svg" p-id="9748" xmlns:xlink="http://www.w3.org/1999/xlink" width="200" height="200"><defs><style type="text/css"></style></defs><path d="M671.750827 136.410453c-29.5424 12.926293-36.317867 43.700907-14.769493 65.245867 10.461867 10.46528 20.309333 12.311893 63.39584 12.311893 60.32384 0 100.949333 16.001707 131.730773 51.705173 37.546667 42.472107 41.854293 55.3984 41.854293 132.95616 0 68.939093 0 70.171307 16.001707 79.404373 36.932267 20.927147 61.556053-4.92544 70.171307-73.864533 11.07968-89.869653-42.468693-194.512213-123.101867-242.52416C804.092587 130.870613 713.60512 118.55872 671.750827 136.410453L671.750827 136.410453zM368.90624 250.90048c-68.942507 24.620373-135.420587 72.01792-206.820693 148.343467C-7.18848 578.983253 3.8912 750.103893 190.399147 841.198933c193.8944 94.79168 454.884693 63.399253 597.07392-72.014507 106.48576-100.952747 93.56288-227.754667-27.6992-270.841173-21.548373-7.386453-28.317013-12.926293-25.2416-19.698347 11.07968-27.081387 14.772907-58.473813 8.618667-76.939947-19.083947-58.477227-88.63744-72.01792-192.047787-36.932267l-41.243307 14.155093 3.693227-41.239893c4.31104-48.626347-6.15424-75.096747-35.085653-89.869653C454.464853 235.50976 408.29952 236.741973 368.90624 250.90048L368.90624 250.90048zM540.02688 489.1136c91.712853 25.2416 147.729067 80.636587 147.729067 146.496853 0 73.250133-65.24928 139.113813-171.124053 174.199467-56.6272 18.466133-161.88416 22.15936-213.589333 8.000853-97.870507-27.695787-153.268907-81.861973-153.268907-151.422293 0-38.16448 16.61952-71.400107 52.937387-105.253547 33.85344-32.006827 59.706027-47.40096 109.564587-64.017067C387.372373 471.87968 468.00896 468.800853 540.02688 489.1136zM346.129067 548.819627c-62.16704 28.934827-95.40608 73.250133-95.40608 128.64512 0 50.479787 22.15936 84.947627 70.785707 110.800213 37.546667 20.312747 106.489173 18.466133 148.34688-3.075413 53.551787-28.317013 88.63744-80.636587 88.63744-131.730773-0.621227-41.854293-37.55008-91.712853-81.250987-109.561173C442.156373 529.128107 383.061333 531.585707 346.129067 548.819627L346.129067 548.819627zM391.0656 664.538453c4.307627 4.31104 7.386453 14.772907 7.386453 24.005973 0 30.78144-51.705173 56.016213-72.635733 35.085653-11.69408-11.69408-8.615253-40.625493 4.92544-54.166187C344.282453 655.9232 379.368107 652.847787 391.0656 664.538453zM682.216107 262.59456c-28.317013 28.317013-9.233067 62.170453 35.700053 62.170453 38.775467 0 56.009387 19.698347 56.009387 64.017067 0 27.6992 2.46784 35.700053 13.54752 43.086507 33.23904 23.391573 60.32384-2.461013 60.32384-57.245013 0-67.09248-48.01536-117.568853-116.340053-122.494293C700.678827 249.668267 693.295787 251.51488 682.216107 262.59456L682.216107 262.59456z" p-id="9749"></path></svg>