<svg class="icon" fill="#c2c6cc" viewBox="0 0 1024 1024" version="1.1" xmlns="http://www.w3.org/2000/svg" xmlns:xlink="http://www.w3.org/1999/xlink" width="48" height="48"><defs><style type="text/css"></style></defs><path d="M348.870666 210.685443l378.570081 0c32.8205 0 58.683541 26.561959 58.683541 58.683541 0 162.043606 0 324.804551 0 486.848157 0 32.81129-26.561959 58.674331-58.683541 58.674331L348.870666 814.891472c-10.477632 0-18.850323-8.363482-18.850323-18.841114l0-37.728276c0-10.477632 8.372691-18.841114 18.850323-18.841114l343.645664 0c10.477632 0 18.850323-8.372691 18.850323-18.850323L711.366653 304.983109c0-10.477632-8.372691-18.841114-18.850323-18.841114L348.870666 286.141996c-10.477632 0-18.850323-8.363482-18.850323-18.841114l0-37.728276C329.98248 219.095997 338.393034 210.685443 348.870666 210.685443z"></path><path d="M128.152728 526.436804l112.450095 112.450095c6.985088 6.985088 19.567661 6.985088 26.552749 0l26.561959-26.561959c6.985088-6.985088 6.985088-19.567661 0-26.552749l-34.925441-34.925441L494.168889 550.84675c10.477632 0 18.850323-8.372691 18.850323-18.850323l0-37.719066c0-10.477632-8.372691-18.850323-18.850323-18.850323L258.754229 475.427036l34.925441-34.925441c6.985088-6.985088 6.985088-19.567661 0-26.552749l-26.561959-26.524097c-6.985088-6.985088-19.567661-6.985088-26.552749 0L128.152728 499.875868C120.431883 506.859933 120.431883 519.451716 128.152728 526.436804z"></path></svg>
