<svg class="icon" style="" viewBox="0 0 1024 1024" version="1.1" xmlns="http://www.w3.org/2000/svg" xmlns:xlink="http://www.w3.org/1999/xlink" width="200" height="200"><defs><style type="text/css"></style></defs><path d="M681.8161 612.2455c33.9272 0 67.6229-0.3717 101.2951 0.2324 10.0792 0.1403 15.0456-3.0188 16.3011-13.0621 4.8302-38.1071 9.986-76.1682 14.8634-114.2528 0.3246-2.6931-0.6062-5.5255-1.1858-10.1939-44.0515 0-87.4988 0-130.4852 0 0-38.5024-2.2036-75.1698 0.7905-111.4194 1.9978-24.5699 23.8275-36.7841 57.2672-37.6433 26.1007-0.6963 52.2476-0.1393 79.6979-0.1393 0-41.6143 0-81.5329 0-124.6321-21.3647-1.579-43.1473-4.9234-64.8602-4.4124-32.9974 0.766-67.0638-0.3021-98.6952 7.4547-70.3836 17.2534-114.9942 77.9786-116.5957 151.8715-0.8591 38.4553-0.1618 76.9096-0.1618 117.5962-6.9898 0.4178-13.0744 1.067-19.158 1.0916-27.4012 0.1157-54.828 0.3942-82.2292-0.1178-10.752-0.2089-16.2785 2.6941-16.1628 14.4906 0.3482 36.1564 0.3246 72.3139 0.0225 108.4692-0.1157 11.4606 4.8312 14.9903 15.8843 14.804 33.1141-0.511 66.2292-0.1853 100.3663-0.1853 0 115.2266 0 228.6428 0 343.4527-158.0483 0-315.6787 0-474.6568 0 0-296.4992 0-593.0076 0-890.8052 296.4736 0 592.9492 0 890.8155 0 0 296.3343 0 592.8202 0 890.9425-4.6213 0.3717-9.6358 1.1151-14.6289 1.1602-81.0691 0.0481-162.1125-0.0901-243.159 0.2335-11.052 0.0471-17.3681-1.5299-17.321-14.8152 0.3482-107.2855 0.2079-214.569 0.2785-321.9016C680.0998 618.282 680.9805 616.0998 681.8161 612.2455z"></path></svg>
