<svg t="1488292930803" class="icon" fill="#c2c6cc" viewBox="0 0 1024 1024" version="1.1" xmlns="http://www.w3.org/2000/svg" p-id="29522" xmlns:xlink="http://www.w3.org/1999/xlink" width="200" height="200"><defs><style type="text/css"></style></defs><path d="M512 1024c-282.713043 0-512-229.286957-512-512s229.286957-512 512-512c282.713043 0 512 229.286957 512 512S792.486957 1024 512 1024zM512 44.521739c-258.226087 0-467.478261 209.252174-467.478261 467.478261 0 258.226087 209.252174 467.478261 467.478261 467.478261s467.478261-209.252174 467.478261-467.478261C979.478261 253.773913 768 44.521739 512 44.521739z" p-id="29523"></path><path d="M801.391304 554.295652c0 160.278261-129.113043 289.391304-289.391304 289.391304s-289.391304-129.113043-289.391304-289.391304L801.391304 554.295652z" p-id="29524"></path><path d="M674.504348 349.495652m-57.878261 0a2.6 2.6 0 1 0 115.756522 0 2.6 2.6 0 1 0-115.756522 0Z" p-id="29525"></path><path d="M347.269565 349.495652m-57.878261 0a2.6 2.6 0 1 0 115.756522 0 2.6 2.6 0 1 0-115.756522 0Z" p-id="29526"></path></svg>
