<svg class="icon" fill="rgba(160,160,160,1)"  viewBox="0 0 1024 1024" version="1.1" xmlns="http://www.w3.org/2000/svg" xmlns:xlink="http://www.w3.org/1999/xlink" width="200" height="200"><defs><style type="text/css"></style></defs><path d="M969.344 416.704l-94.656 94.528c-59.008 59.008-146.624 70.848-217.856 36.928l217.856-217.92c25.024-25.024 25.024-65.536 0-90.496L784.256 149.12c-25.024-25.024-65.472-25.024-90.496 0L475.84 367.104C441.92 295.808 453.76 208.192 512.768 149.12l94.464-94.528c75.008-74.944 196.608-74.944 271.488 0l90.624 90.496C1044.224 220.096 1044.224 341.696 969.344 416.704zM331.776 692.16c-25.024-25.024-25.024-65.472 0-90.496l271.488-271.488c25.024-25.024 65.472-25.024 90.496 0s25.024 65.472 0 90.496l-271.488 271.488C397.312 717.184 356.736 717.184 331.776 692.16zM150.72 782.72l90.496 90.496c25.024 25.024 65.472 25.024 90.496 0l217.984-217.984c33.92 71.296 22.08 158.912-36.928 217.984l-86.528 94.528c-75.008 75.008-196.544 75.008-271.552 0l-98.56-98.496c-74.944-75.008-74.944-196.544 0-271.552l94.528-86.528C209.792 452.16 297.344 440.32 368.704 474.24l-217.984 217.92C125.76 717.184 125.76 757.76 150.72 782.72z"></path></svg>
