<svg class="icon" style="" viewBox="0 0 1024 1024" version="1.1" xmlns="http://www.w3.org/2000/svg" xmlns:xlink="http://www.w3.org/1999/xlink" width="200" height="200"><defs><style type="text/css"></style></defs><path d="M505.429333 60.422827c-4.666027 1.908053-17.810773 15.899307-17.810773 19.080533 0 1.058133-20.565333 44.735147-45.79328 96.887467-25.227947 52.155733-46.854827 97.737387-48.124587 101.338453-1.061547 3.392853-2.9696 7.420587-3.816107 8.69376-1.061547 1.273173-6.997333 12.721493-13.356373 25.439573-6.785707 13.994667-13.994667 25.654613-18.0224 28.83584-9.751893 8.267093-3.181227 7.420587-198.44096 29.25568-88.193707 9.96352-97.9456 11.44832-103.246507 16.325973-3.816107 3.38944-5.300907 15.68768-2.542933 22.89664 0.846507 1.908053 38.795947 37.94944 84.3776 80.13824 144.165547 133.137067 134.836907 123.81184 134.836907 133.778773 0 4.87424-2.966187 22.469973-6.35904 39.43424-3.60448 16.960853-11.659947 59.364693-18.234027 94.344533-6.570667 34.983253-14.20288 75.04896-16.960853 89.043627-14.626133 74.625707-14.841173 76.745387-7.205547 84.804267 7.205547 7.632213 15.476053 6.782293 37.311147-4.235947 20.353707-10.3936 22.26176-11.44832 62.33088-34.986667 14.629547-8.47872 33.71008-19.503787 42.400427-24.38144 8.69376-4.87424 24.804693-14.414507 35.618133-20.985173s20.14208-11.874987 20.77696-11.874987c0.423253 0 6.997333-3.816107 14.41792-8.482133 7.420587-4.662613 14.20288-8.475307 15.0528-8.475307 0.846507 0 8.47872-4.23936 16.960853-9.540267 20.138667-12.51328 37.522773-18.868907 47.489707-16.964267 4.235947 0.846507 14.414507 4.877653 22.473387 9.32864 21.200213 11.236693 154.763947 88.193707 196.317867 112.9984 35.406507 21.200213 45.79328 25.23136 57.879893 22.04672 8.055467-1.908053 10.386773-13.568 7.632213-36.672853-1.273173-10.3936-3.181227-22.053547-4.242773-26.08128-1.696427-6.785707-8.690347-44.305067-25.6512-138.441387-7.847253-44.735147-7.847253-45.581653 9.74848-52.15232 24.384853-9.117013 35.82976-17.17248 31.378773-21.62688-1.4848-1.488213-15.0528 0.21504-43.250347 5.300907-52.36736 9.540267-63.1808 11.025067-118.514347 16.114347-62.96576 5.9392-121.060693 7.205547-198.656 4.4544-60.634453-2.11968-132.717227-7.420587-136.74496-9.96352-3.177813-2.123093-1.696427-8.697173 3.181227-12.93312 2.542933-2.338133 34.768213-25.442987 71.447893-51.51744 114.906453-81.414827 189.535573-135.263573 195.682987-140.991147 10.5984-9.96352 9.751893-10.386773-34.348373-16.110933-69.751467-8.905387-87.985493-10.390187-201.622187-15.691093-37.94944-1.693013-72.2944-3.816107-76.322133-4.450987-41.55392-6.997333 170.243413-26.077867 259.710293-23.319893 58.7264 1.696427 127.842987 6.570667 168.546987 11.871573 37.94944 5.08928 40.280747 5.512533 40.280747 9.751893 0 3.392853-4.027733 6.362453-93.279573 67.843413-36.67968 25.442987-75.687253 52.36736-86.71232 60.002987-10.81344 7.6288-22.04672 15.47264-24.593067 17.169067-11.874987 8.055467-51.729067 35.82976-62.754133 43.881813-6.99392 5.085867-12.506453 10.5984-12.506453 12.29824 0 4.031147 10.386773 6.577493 42.400427 10.390187 85.01248 9.96352 243.172693 15.476053 250.170027 8.47872 1.4848-1.488213 1.26976-6.147413-1.06496-15.899307-1.693013-7.420587-3.177813-14.421333-3.177813-15.476053 0-2.9696 36.0448-39.010987 85.8624-85.650773 131.652267-123.392 134.62528-126.358187 134.62528-136.11008 0-8.482133-7.000747-16.114347-17.38752-18.65728-5.085867-1.273173-35.406507-4.666027-67.42016-7.84384-32.013653-2.9696-67.416747-6.362453-78.4384-7.420587-11.025067-1.273173-34.348373-3.60448-51.944107-5.512533-67.208533-6.785707-87.773867-9.32864-92.648107-11.659947-9.32864-4.23936-18.0224-21.62688-82.264747-166.21568-45.79328-103.458133-49.821013-111.72864-56.180053-117.4528C519.420587 59.999573 511.153493 58.09152 505.429333 60.422827L505.429333 60.422827z"></path></svg>
