<svg class="icon" width="19" height="20" viewBox="0 0 19 20" xmlns="http://www.w3.org/2000/svg"><desc>wechat reward.</desc><g><path d="M14.313 7.261l-.032-.004c-.462-.066-.712-.364-.824-.711-.042-.13-.06-.253-.068-.398-.009-.151-.008-.235.001-.645.022-.999-.015-1.624-.194-2.298l-.121-.386-.035-.118c-.044-.196-.184-.549-.437-.895-.44-.602-1.044-.918-1.951-.846-.963.076-1.397.848-1.406 2.11v.009c-.006.908-.022 1.375-.093 1.972-.169 1.421-.593 2.49-1.473 3.132-.617.45-1.61.688-2.962.826-.984.101-1.996.129-2.824.12l-.072-.001c-.153 0-.759.697-.759.95l-.11 7.776c-.044.569.331.917.869.917h10.741c1.054 0 1.88-.147 2.786-.693.52-.314.988-.738 1.396-1.294 1.321-1.803 1.5-3.456 1.085-7.244-.107-.982-1.029-1.976-2.161-2.132l-1.357-.145z" stroke="#434343" fill="none" stroke-width="1.9"/><path d="M9.241 15.058l-.184.044c-.153 0-.286-.084-.356-.208l-.027-.058-1.994-2.273-.02-.085c-.065-.243.221-.556.463-.476l.122.04 1.496.998c.096.063.211.099.334.099l.209-.037 4.601-3.524c.543-.148.661.002.426.529l-5.027 4.926-.045.026z" fill="#434343"/></g></svg>
