<svg t="1488259128946" class="icon" style="" viewBox="0 0 1024 1024" version="1.1" xmlns="http://www.w3.org/2000/svg" p-id="11523" xmlns:xlink="http://www.w3.org/1999/xlink" width="200" height="200"><defs><style type="text/css"></style></defs><path d="M223.94391 322.758961c13.423731-13.414521 20.394493-30.05041 20.394493-48.830125 0-18.780739-6.971785-34.886555-20.394493-48.301076-13.414521-13.414521-29.512151-20.385283-48.291866-20.385283-18.780739 0-35.415604 6.971785-48.830125 20.385283-13.414521 13.414521-19.857257 29.521361-19.857257 48.301076 0 18.779715 6.441713 35.415604 19.857257 48.830125 13.413498 13.413498 30.049387 19.856233 48.830125 19.856233C194.431759 342.616218 210.529389 336.173482 223.94391 322.758961L223.94391 322.758961zM816.895617 583.016427c0 18.780739-6.435573 34.876322-19.848047 48.28982L533.567713 895.313106c-13.951757 13.413498-30.049387 19.857257-48.829102 19.857257-18.780739 0-34.877345-6.443759-48.291866-19.857257L52.769342 511.106654c-13.413498-13.413498-25.222451-31.125905-34.877345-54.19532-9.124821-23.078625-13.95278-44.002167-13.95278-62.782905l0-223.234247c0-18.780739 6.971785-34.877345 20.395516-48.290843C37.749254 109.187795 53.846884 102.217033 72.627622 102.217033L295.851637 102.217033c18.780739 0 39.714514 4.826935 62.782905 14.481829 23.078625 9.124821 41.320081 20.933775 54.733579 34.348296l383.678426 383.128911C810.460044 548.128849 816.895617 564.226478 816.895617 583.016427L816.895617 583.016427zM1022.954693 583.016427c0 18.780739-6.442736 34.876322-19.857257 48.28982L739.628836 895.313106c-13.95278 13.413498-30.049387 19.857257-48.829102 19.857257-25.762757 0-38.636972-9.654894-60.099796-31.655977l252.197906-252.209162c13.414521-13.413498 19.857257-29.510104 19.857257-48.28982 0-18.788925-6.442736-34.887578-19.857257-48.840358l-383.668193-383.128911c-13.414521-13.414521-31.665187-25.222451-54.734602-34.348296-23.078625-9.654894-44.002167-14.481829-62.782905-14.481829l120.199593 0c18.780739 0 39.70428 4.826935 62.782905 14.481829 23.069415 9.124821 41.321104 20.933775 54.733579 34.348296l383.668193 383.128911C1016.511957 548.128849 1022.954693 564.226478 1022.954693 583.016427z" p-id="11524"></path></svg>
