<svg t="1489668929511" class="icon" style="" viewBox="0 0 1024 1024" version="1.1" xmlns="http://www.w3.org/2000/svg" p-id="2018" xmlns:xlink="http://www.w3.org/1999/xlink" width="200" height="200"><defs><style type="text/css"></style></defs><path d="M511.999488 300.468283c-26.749224 0-48.479131 21.73093-48.479131 48.479131 0 26.796296 21.729907 48.479131 48.479131 48.479131 26.797319 0 48.479131-21.682835 48.479131-48.479131C560.478619 322.199213 538.796808 300.468283 511.999488 300.468283zM511.999488 106.551758c-214.177987 0-387.833049 173.654039-387.833049 387.833049 0 214.228129 173.655062 387.833049 387.833049 387.833049 214.181057 0 387.833049-173.60492 387.833049-387.833049C899.832538 280.205796 726.180546 106.551758 511.999488 106.551758zM511.999488 833.738725c-187.429787 0-339.353918-151.923108-339.353918-339.353918S324.569702 155.030889 511.999488 155.030889c187.43081 0 339.353918 151.923108 339.353918 339.353918S699.430298 833.738725 511.999488 833.738725zM536.239566 445.905676l-48.479131 0c-13.397125 0-24.240077 10.841929-24.240077 24.240077l0 193.916525c0 13.398148 10.842952 24.240077 24.240077 24.240077l48.479131 0c13.399171 0 24.240077-10.841929 24.240077-24.240077l0-193.916525C560.478619 456.747605 549.638737 445.905676 536.239566 445.905676z" p-id="2019"></path></svg>
